<?xml version="1.0" encoding="iso-8859-1"?>
<!-- Uploaded to: SVG Repo, www.svgrepo.com, Generator: SVG Repo Mixer Tools -->
<svg height="800px" width="800px" version="1.1" id="Layer_1" xmlns="http://www.w3.org/2000/svg" xmlns:xlink="http://www.w3.org/1999/xlink" 
	 viewBox="0 0 512 512" xml:space="preserve">
<g>
	<path style="fill:#3C1146;" d="M256,125.627c-27.919,0-50.634-22.714-50.634-50.635S228.081,24.357,256,24.357
		s50.634,22.714,50.634,50.635S283.919,125.627,256,125.627z M256,52.463c-12.422,0-22.527,10.106-22.527,22.529
		S243.578,97.521,256,97.521c12.422,0,22.527-10.106,22.527-22.529S268.422,52.463,256,52.463z"/>
	<path style="fill:#3C1146;" d="M334.791,143.919c-27.919,0-50.634-22.714-50.634-50.635s22.714-50.635,50.634-50.635
		c27.921,0,50.635,22.714,50.635,50.635S362.713,143.919,334.791,143.919z M334.791,70.755c-12.422,0-22.527,10.106-22.527,22.529
		s10.106,22.529,22.527,22.529c12.423,0,22.529-10.106,22.529-22.529S347.214,70.755,334.791,70.755z"/>
	<path style="fill:#3C1146;" d="M177.209,143.919c-27.921,0-50.635-22.714-50.635-50.635s22.714-50.635,50.635-50.635
		c27.919,0,50.634,22.714,50.634,50.635S205.129,143.919,177.209,143.919z M177.209,70.755c-12.423,0-22.529,10.106-22.529,22.529
		s10.106,22.529,22.529,22.529c12.422,0,22.527-10.106,22.527-22.529S189.631,70.755,177.209,70.755z"/>
	<path style="fill:#3C1146;" d="M59.487,363.508c-7.76,0-14.053-6.292-14.053-14.053V174.803c0-33.206,25.917-61.202,59.002-63.735
		c1.566-0.121,3.179-0.181,4.913-0.181h293.3c35.288,0,62.93,28.075,62.93,63.915v75.109c0,7.762-6.293,14.053-14.053,14.053
		c-7.76,0-14.053-6.292-14.053-14.053v-75.109c0-20.081-15.297-35.809-34.824-35.809H109.351c-1.003,0-1.903,0.032-2.753,0.098
		c-18.542,1.419-33.056,17.106-33.056,35.712v174.652C73.54,357.215,67.249,363.508,59.487,363.508z"/>
</g>
<path style="fill:#D4A8B4;" d="M451.528,174.944v81.648c0,11.002-4.503,21.007-11.763,28.253
	c-7.246,7.26-17.249,11.763-28.253,11.763c-22.006,0-40.015-18.009-40.015-40.015v-37.553
	c-4.854,16.631-20.275,28.885-38.424,28.885s-33.556-12.254-38.41-28.885v14.83c0,11.002-4.503,21.007-11.748,28.267
	c-7.26,7.246-17.264,11.748-28.267,11.748c-22.019,0-40.015-18.009-40.015-40.015v-22.935c-2.434,8.329-7.499,15.547-14.225,20.696
	c-6.726,5.135-15.125,8.203-24.201,8.203c-14.52,0-27.281-7.837-34.302-19.486v36.245c0,11.002-4.503,21.007-11.763,28.253
	c-7.246,7.26-17.25,11.763-28.253,11.763c-22.006,0-41.42-18.009-41.42-40.015l0.294-81.788c0-26.254,20.289-47.753,46.023-49.723
	c15.21,0,29.406,0,29.406,0h265.469C429.213,125.08,451.528,147.396,451.528,174.944z"/>
<g>
	<path style="fill:#3C1146;" d="M411.513,310.66c-29.814,0-54.068-24.254-54.068-54.068v-0.497
		c-7.409,3.777-15.726,5.883-24.372,5.883c-10.174,0-19.891-2.917-28.21-8.045c-2.687,6.696-6.734,12.854-12,18.13
		c-10.264,10.243-23.829,15.875-38.213,15.875c-25.22,0-46.463-17.357-52.409-40.753c-7.946,4.406-16.809,6.702-26.029,6.702
		c-7.017,0-13.886-1.401-20.249-4v6.705c0,14.407-5.644,27.973-15.889,38.199c-10.207,10.227-23.772,15.869-38.18,15.869
		c-30.068,0-55.474-24.76-55.474-54.068l0.294-81.84c0-33.156,25.917-61.151,59.002-63.683c0.357-0.028,0.715-0.041,1.074-0.041
		h294.874c35.244,0,63.917,28.673,63.917,63.917v81.649c0,14.407-5.644,27.973-15.889,38.199
		C439.486,305.018,425.92,310.66,411.513,310.66z M371.488,204.984c0.662,0,1.328,0.046,2,0.143
		c6.923,0.989,12.065,6.918,12.065,13.911v37.553c0,14.316,11.646,25.962,25.962,25.962c6.889,0,13.39-2.712,18.304-7.637
		c4.945-4.934,7.656-11.435,7.656-18.325v-81.649c0-19.746-16.066-35.81-35.81-35.81H107.371
		c-18.294,1.655-32.551,17.228-32.551,35.67l-0.294,81.839c0,13.781,12.788,25.911,27.367,25.911c6.889,0,13.39-2.712,18.304-7.637
		c4.945-4.934,7.656-11.435,7.656-18.325v-36.246c0-6.311,4.208-11.85,10.288-13.539c6.079-1.693,12.542,0.88,15.8,6.286
		c4.716,7.826,13.249,12.687,22.267,12.687c5.696,0,11.113-1.84,15.669-5.319c4.423-3.385,7.718-8.172,9.265-13.469
		c1.962-6.712,8.565-10.964,15.48-9.971c6.923,0.991,12.063,6.92,12.063,13.911v22.935c0,14.316,11.646,25.962,25.962,25.962
		c6.887,0,13.401-2.714,18.339-7.642c4.909-4.919,7.622-11.431,7.622-18.32v-14.83c0-6.993,5.142-12.922,12.065-13.911
		c6.91-0.991,13.519,3.262,15.48,9.975c3.225,11.051,13.473,18.769,24.919,18.769c11.455,0,21.709-7.718,24.935-18.769
		C359.779,209.04,365.33,204.984,371.488,204.984z"/>
	<path style="fill:#3C1146;" d="M497.947,487.643H14.053C6.293,487.643,0,481.351,0,473.59v-81.742
		c0-29.575,24.062-53.637,53.637-53.637h283.875c7.76,0,14.053,6.292,14.053,14.053c0,7.762-6.293,14.053-14.053,14.053H53.637
		c-14.078,0-25.53,11.453-25.53,25.53v67.689h455.787v-67.689c0-14.077-11.452-25.53-25.53-25.53h-33.725
		c-7.76,0-14.053-6.292-14.053-14.053s6.293-14.053,14.053-14.053h33.725c29.575,0,53.637,24.062,53.637,53.637v81.742
		C512,481.351,505.708,487.643,497.947,487.643z"/>
</g>
</svg>